<svg width="364" height="615" viewBox="0 0 364 615" fill="none" xmlns="http://www.w3.org/2000/svg">
<path d="M285.448 0C309.509 0 328.4 6.76617 342.121 20.2979C356.04 33.6305 363 51.9384 363 75.2207V379.384C358.99 377.833 354.78 377.144 350.634 377.144H326.312V256.628C326.321 256.18 326.322 255.729 326.312 255.275V80.5928C326.312 65.8673 322.534 54.9226 314.978 47.7588C307.421 40.3961 296.186 36.7148 281.272 36.7148H81.7275C66.8139 36.7148 55.5787 40.3961 48.0225 47.7588C40.4662 54.9226 36.6876 65.8673 36.6875 80.5928V533.705C36.6875 548.232 40.4662 559.177 48.0225 566.54C55.5787 573.903 66.814 577.584 81.7275 577.584H164.439L160.537 587.813C157.863 594.641 156.216 603.349 159.22 612.363L159.324 612.676L159.438 612.985C159.564 613.326 159.697 613.663 159.834 614H77.5518C53.491 614 34.5005 607.334 20.5811 594.001C6.86043 580.668 0 562.261 0 538.779V75.2207C0 51.9383 6.8605 33.6305 20.5811 20.2979C34.5005 6.76617 53.491 0 77.5518 0H285.448ZM363 538.779C363 562.261 356.04 580.668 342.121 594.001C328.4 607.334 309.509 614 285.448 614H222.756L252.967 577.584H281.272C296.186 577.584 307.421 573.903 314.978 566.54C322.534 559.177 326.312 548.232 326.312 533.705V489.174L363 444.951V538.779ZM119.608 484.155C127.164 484.155 130.942 487.738 130.942 494.901V523.258C130.942 530.223 127.164 533.705 119.608 533.705H92.167C84.8096 533.705 81.1309 530.223 81.1309 523.258V494.901C81.1309 487.738 84.8096 484.155 92.167 484.155H119.608ZM194.773 484.155C196.697 484.155 198.375 484.389 199.809 484.854L181.176 533.705H167.034C160.074 533.705 156.594 530.223 156.594 523.258V494.901C156.594 487.738 160.074 484.155 167.034 484.155H194.773ZM119.608 243.57C127.164 243.57 130.942 247.153 130.942 254.316V282.374C130.942 289.538 127.164 293.12 119.608 293.12H92.167C84.8096 293.12 81.1309 289.538 81.1309 282.374V254.316C81.1309 247.153 84.8096 243.57 92.167 243.57H119.608ZM194.773 243.57C202.33 243.57 206.107 247.153 206.107 254.316V282.374C206.107 289.538 202.33 293.12 194.773 293.12H167.034C160.074 293.12 156.594 289.538 156.594 282.374V254.316C156.594 247.153 160.074 243.57 167.034 243.57H194.773ZM119.608 164.171C127.164 164.171 130.942 167.753 130.942 174.917V203.273C130.942 210.238 127.164 213.721 119.608 213.721H92.167C84.8096 213.721 81.1309 210.238 81.1309 203.273V174.917C81.1309 167.753 84.8096 164.171 92.167 164.171H119.608ZM194.773 164.171C202.33 164.171 206.107 167.753 206.107 174.917V203.273C206.107 210.238 202.33 213.721 194.773 213.721H167.034C160.074 213.721 156.594 210.238 156.594 203.273V174.917C156.594 167.753 160.074 164.171 167.034 164.171H194.773ZM269.938 164.171C277.495 164.171 281.272 167.753 281.272 174.917V203.273C281.272 210.238 277.495 213.721 269.938 213.721H242.497C235.339 213.721 231.759 210.238 231.759 203.273V174.917C231.759 167.753 235.339 164.171 242.497 164.171H269.938ZM119.608 84.7725C127.164 84.7726 130.942 88.354 130.942 95.5176V123.875C130.942 131.038 127.164 134.62 119.608 134.62H92.167C84.8097 134.62 81.131 131.039 81.1309 123.875V95.5176C81.1309 88.3539 84.8096 84.7725 92.167 84.7725H119.608ZM194.773 84.7725C202.33 84.7725 206.107 88.3539 206.107 95.5176V123.875C206.107 131.038 202.329 134.62 194.773 134.62H167.034C160.075 134.62 156.594 131.039 156.594 123.875V95.5176C156.594 88.3539 160.074 84.7725 167.034 84.7725H194.773ZM269.938 84.7725C277.495 84.7725 281.272 88.3539 281.272 95.5176V123.875C281.272 131.039 277.495 134.62 269.938 134.62H242.497C235.339 134.62 231.759 131.039 231.759 123.875V95.5176C231.759 88.3539 235.339 84.7725 242.497 84.7725H269.938Z" fill="white"/>
<path d="M291.26 244.579C294.695 243.806 297.73 244.136 300.363 245.572C303.111 246.897 305.001 249.107 306.031 252.199C307.176 255.291 306.889 258.936 305.172 263.132L253.99 397.316H351.03C354.694 397.316 357.672 398.421 359.962 400.63C362.252 402.728 363.396 405.379 363.396 408.582C363.396 412.005 361.908 415.539 358.931 419.183L202.808 607.373C199.945 610.796 196.796 612.894 193.361 613.668C190.041 614.551 187.006 614.275 184.258 612.839C181.624 611.514 179.735 609.305 178.59 606.213C177.56 603.12 177.904 599.421 179.621 595.114L230.803 460.929H133.763C130.099 460.929 127.122 459.88 124.832 457.782C122.542 455.573 121.396 452.867 121.396 449.665C121.397 446.352 122.885 442.817 125.862 439.062L281.985 251.039C284.848 247.505 287.939 245.352 291.26 244.579Z" fill="white"/>
<path d="M291.26 244.579C294.695 243.806 297.73 244.136 300.363 245.572C303.111 246.897 305.001 249.107 306.031 252.199C307.176 255.291 306.889 258.936 305.172 263.132L253.99 397.316H351.03C354.694 397.316 357.672 398.421 359.962 400.63C362.252 402.728 363.396 405.379 363.396 408.582C363.396 412.005 361.908 415.539 358.931 419.183L202.808 607.373C199.945 610.796 196.796 612.894 193.361 613.668C190.041 614.551 187.006 614.275 184.258 612.839C181.624 611.514 179.735 609.305 178.59 606.213C177.56 603.12 177.904 599.421 179.621 595.114L230.803 460.929H133.763C130.099 460.929 127.122 459.88 124.832 457.782C122.542 455.573 121.396 452.867 121.396 449.665C121.397 446.352 122.885 442.817 125.862 439.062L281.985 251.039C284.848 247.505 287.939 245.352 291.26 244.579Z" stroke="white"/>
</svg>
